<svg width="91" height="91" viewBox="0 0 91 91" fill="none" xmlns="http://www.w3.org/2000/svg">
<path d="M40.1918 62.9418L66.9231 36.2106L61.6147 30.9022L40.1918 52.3252L29.3856 41.5189L24.0772 46.8272L40.1918 62.9418ZM45.5002 83.4168C40.255 83.4168 35.3259 82.4215 30.7127 80.4309C26.0995 78.4403 22.0866 75.7387 18.6741 72.3262C15.2616 68.9137 12.5601 64.9009 10.5694 60.2877C8.57881 55.6745 7.5835 50.7453 7.5835 45.5002C7.5835 40.255 8.57881 35.3259 10.5694 30.7127C12.5601 26.0995 15.2616 22.0866 18.6741 18.6741C22.0866 15.2616 26.0995 12.5601 30.7127 10.5694C35.3259 8.57881 40.255 7.5835 45.5002 7.5835C50.7453 7.5835 55.6745 8.57881 60.2877 10.5694C64.9009 12.5601 68.9137 15.2616 72.3262 18.6741C75.7387 22.0866 78.4403 26.0995 80.4309 30.7127C82.4215 35.3259 83.4168 40.255 83.4168 45.5002C83.4168 50.7453 82.4215 55.6745 80.4309 60.2877C78.4403 64.9009 75.7387 68.9137 72.3262 72.3262C68.9137 75.7387 64.9009 78.4403 60.2877 80.4309C55.6745 82.4215 50.7453 83.4168 45.5002 83.4168ZM45.5002 75.8335C53.9682 75.8335 61.1408 72.895 67.0179 67.0179C72.895 61.1408 75.8335 53.9682 75.8335 45.5002C75.8335 37.0321 72.895 29.8595 67.0179 23.9825C61.1408 18.1054 53.9682 15.1668 45.5002 15.1668C37.0321 15.1668 29.8595 18.1054 23.9825 23.9825C18.1054 29.8595 15.1668 37.0321 15.1668 45.5002C15.1668 53.9682 18.1054 61.1408 23.9825 67.0179C29.8595 72.895 37.0321 75.8335 45.5002 75.8335Z" fill="#6B54EC"/>
</svg>
